<?xml version="1.0" standalone="no"?>
<!DOCTYPE svg PUBLIC "-//W3C//DTD SVG 20010904//EN"
 "http://www.w3.org/TR/2001/REC-SVG-20010904/DTD/svg10.dtd">
<svg version="1.0" xmlns="http://www.w3.org/2000/svg"
 width="150.000000pt" height="150.000000pt" viewBox="0 0 150.000000 150.000000"
 preserveAspectRatio="xMidYMid meet">
<metadata>
Created by potrace 1.14, written by Peter Selinger 2001-2017
</metadata>
<g transform="translate(0.000000,150.000000) scale(0.100000,-0.100000)"
fill="#000000" stroke="none">
<path d="M645 1320 c-82 -82 -116 -110 -135 -110 -36 0 -220 -185 -220 -220 0
-19 -29 -54 -110 -135 l-110 -110 110 -110 c85 -85 110 -116 110 -137 0 -39
180 -218 218 -218 21 0 51 -24 137 -110 l110 -110 110 110 c85 85 116 110 137
110 39 0 218 180 218 218 0 21 24 51 110 137 l110 110 -110 110 c-85 85 -110
116 -110 137 0 38 -180 218 -218 218 -21 0 -52 25 -137 110 l-110 110 -110
-110z m210 -10 l100 -100 -200 0 -200 0 100 100 c55 55 100 100 100 100 0 0
45 -45 100 -100z m-440 -220 c-78 -78 -111 -106 -113 -94 -5 22 176 204 203
204 14 0 -10 -30 -90 -110z m672 -12 l123 -123 0 -211 0 -212 -122 -121 -122
-121 -210 0 -211 0 -122 122 -123 123 0 210 0 210 122 122 123 123 210 0 210
0 122 -122z m32 28 c58 -58 92 -100 89 -110 -2 -12 -35 16 -113 94 -80 80
-104 110 -90 110 12 0 58 -38 114 -94z m-829 -363 l0 -198 -100 100 -100 100
97 97 c54 54 99 98 100 98 2 0 3 -89 3 -197z m1033 99 l97 -97 -100 -100 -100
-100 0 198 c0 108 1 197 3 197 1 0 46 -44 100 -98z m-819 -550 c-22 -5 -204
176 -204 203 0 14 30 -10 110 -90 78 -78 106 -111 94 -113z m615 92 c-56 -56
-102 -94 -114 -94 -14 0 10 30 90 110 78 78 111 106 113 94 3 -10 -31 -52 -89
-110z m-169 -110 c0 -3 -43 -49 -96 -102 l-96 -95 -101 101 -102 102 198 0
c108 0 197 -3 197 -6z"/>
<path d="M693 913 c10 -3 17 -14 17 -30 0 -18 -4 -24 -15 -19 -17 6 -21 -9 -5
-19 18 -11 40 15 40 46 0 25 -4 29 -27 28 -17 -1 -21 -3 -10 -6z"/>
<path d="M775 910 c-8 -13 3 -30 20 -30 8 0 17 -5 21 -11 5 -9 -1 -10 -20 -5
-14 3 -26 2 -26 -3 0 -15 38 -20 56 -6 19 13 11 35 -12 35 -8 0 -14 5 -14 11
0 6 7 9 15 5 8 -3 15 -1 15 4 0 13 -47 13 -55 0z"/>
<path d="M645 710 c-13 -15 -22 -17 -36 -9 -24 12 -26 -6 -2 -19 12 -7 24 -4
45 11 l28 21 25 -24 25 -23 23 21 c29 27 35 27 64 0 l23 -22 20 22 c25 26 33
27 50 7 7 -9 15 -13 18 -10 7 7 -28 45 -42 45 -7 0 -20 -9 -30 -21 l-18 -21
-22 21 c-28 26 -34 26 -63 -1 l-23 -21 -23 21 c-29 27 -39 27 -62 2z"/>
<path d="M391 574 c0 -11 3 -14 6 -6 3 7 2 16 -1 19 -3 4 -6 -2 -5 -13z"/>
<path d="M881 583 c-1 -17 16 -25 25 -12 4 7 3 9 -4 5 -5 -3 -13 0 -15 6 -4 9
-6 10 -6 1z"/>
<path d="M974 578 c4 -20 26 -21 26 -1 0 14 -2 15 -9 4 -6 -9 -10 -10 -14 -2
-4 8 -5 8 -3 -1z"/>
<path d="M1060 569 c0 -5 5 -7 10 -4 6 3 10 8 10 11 0 2 -4 4 -10 4 -5 0 -10
-5 -10 -11z"/>
<path d="M628 563 c7 -3 16 -2 19 1 4 3 -2 6 -13 5 -11 0 -14 -3 -6 -6z"/>
<path d="M838 563 c7 -3 16 -2 19 1 4 3 -2 6 -13 5 -11 0 -14 -3 -6 -6z"/>
</g>
</svg>
